# xmcd CD database file
#
# Track frame offsets:
#	150
#	13705
#	29286
#	41458
#	51524
#	68941
#	91397
#	109766
#	119258
#	135025
#	151695
#	163857
#	182727
#	196925
#	217625
#	236270
#
# Disc length: 3340 seconds
#
# Revision: 1
# Processed by: cddbd v1.5.2PL0 Copyright (c) Steve Scherf et al.
# Submitted via: CDex 1.51
#
DISCID=c60d0a10
DTITLE=Kevin Kern - Christmas
DYEAR=2012
DGENRE=New Age
TTITLE0=Angels We Have Heard On High
TTITLE1=Joy To The World
TTITLE2=Il Est Ne Le Divin Enfant
TTITLE3=Away In A Manger
TTITLE4=In The Bleak Midwinter
TTITLE5=Good King Wenceslas
TTITLE6=Lo, How A Rose E'er Blooming
TTITLE7=What Child Is This
TTITLE8=Hark! The Herald Angels Sing
TTITLE9=It Came Upon A Midnight Clear
TTITLE10=O Come, O Come Emmanuel
TTITLE11=O Holy Night
TTITLE12=The First Noel
TTITLE13=O Christmas Tree
TTITLE14=The Holly And The Ivy
TTITLE15=Silent Night
EXTD=YEAR: 2012
EXTT0=
EXTT1=
EXTT2=
EXTT3=
EXTT4=
EXTT5=
EXTT6=
EXTT7=
EXTT8=
EXTT9=
EXTT10=
EXTT11=
EXTT12=
EXTT13=
EXTT14=
EXTT15=
PLAYORDER=
